<svg width="594" height="734" viewBox="0 0 594 734" fill="none" xmlns="http://www.w3.org/2000/svg">
<path fill-rule="evenodd" clip-rule="evenodd" d="M100.998 1.45927C100.624 2.43601 100.658 7.88386 101.075 13.5656C103.102 41.2174 113.826 60.9417 133.903 73.9414C146.357 82.0065 182.566 99.6971 286.664 148.576C386.318 195.367 409.135 206.218 476.946 239.054C498.007 249.253 515.504 257.335 515.824 257.013C516.145 256.692 515.707 255.781 514.849 254.99C513.204 253.468 326.773 136.684 254.212 91.7208C202.505 59.6801 104.978 0.521516 103.06 0.0342301C102.3 -0.158518 101.372 0.482533 100.998 1.45927ZM85.903 122.113C87.8848 139.652 94.0378 153.352 105.23 165.149C114.506 174.926 122.943 180.892 134.244 185.663C138.807 187.589 171.44 196.793 206.76 206.115C396.408 256.17 549.13 296.879 560.618 300.437C561.66 300.76 562.511 300.51 562.511 299.883C562.511 298.464 563.887 299.035 508.424 277.456C468.12 261.776 407.918 238.59 147.217 138.342C114.844 125.894 87.6437 115.709 86.7685 115.709C85.4683 115.709 85.3102 116.872 85.903 122.113ZM118.317 246.296C119.697 252.298 128.642 268.966 133.81 275.169C143.596 286.914 157.671 296.42 170.917 300.229C175.214 301.465 218.029 304.644 325.067 311.676C406.577 317.032 500.172 323.199 533.057 325.38C585.798 328.878 595.651 329.228 593.792 327.54C593.308 327.1 536.326 316.893 287.746 272.717C200.584 257.227 126.642 244.238 123.431 243.852L117.592 243.151L118.317 246.296ZM439.732 352.896C367.147 353.297 287.191 353.695 262.055 353.781L216.35 353.938V356.311C216.35 360.528 224.666 372.848 232.517 380.262C243.5 390.633 257.805 397.252 269.234 397.252C271.925 397.252 329.156 389.463 396.414 379.944C573.968 354.814 575.549 354.58 575.802 353.396C576.098 352.009 590.87 352.063 439.732 352.896ZM527.354 388.167C513.075 391.993 477.54 401.235 448.386 408.704C390.543 423.524 307.604 445.476 303.38 447.083C301.921 447.638 300.727 448.673 300.727 449.382C300.727 451.33 310.336 466.611 314.072 470.603C318.737 475.589 325.266 477.847 332.353 476.928C342.845 475.566 554.58 385.941 555.756 382.363C556.396 380.415 555.905 380.514 527.354 388.167ZM474.57 455.19C443.775 473.954 402.463 498.741 382.765 510.271C363.068 521.801 346.597 531.91 346.164 532.734C345.14 534.688 347.908 555.813 349.669 559.478C350.416 561.035 352.303 563.024 353.862 563.898C359.296 566.948 365.099 562.687 434.606 504.612C534.208 421.391 534.575 421.075 531.482 421.075C530.976 421.075 505.366 436.427 474.57 455.19ZM457.04 527.593C453.471 530.738 428.505 552.215 401.562 575.32C374.618 598.425 351.901 618.633 351.077 620.226C350.254 621.82 348.798 626.27 347.843 630.114C346.887 633.959 344.324 642.579 342.148 649.267C339.971 655.957 338.572 661.805 339.04 662.262C340.089 663.289 346.969 656.03 391.626 606.785C437.158 556.574 466.235 523.792 466.235 522.67C466.235 520.574 463.105 522.251 457.04 527.593ZM297.482 598.348C273.806 606.971 214.837 620.16 156.313 629.924C107.026 638.146 77.3702 641.458 29.2074 644.117C3.99388 645.509 0 646.032 0 647.94C0 648.764 2.73138 651.666 6.06967 654.388C33.3223 676.611 77.2123 677.243 156.613 656.558C193.229 647.018 226.733 635.517 261.057 620.705C282.646 611.388 309.381 597.597 309.381 595.776C309.381 593.962 309.744 593.884 297.482 598.348ZM301.809 628.589C253.583 658.652 170.958 687.385 87.119 703.246C79.405 704.705 72.657 706.336 72.1226 706.871C70.4718 708.523 79.8679 714.369 89.1472 717.46C97.2928 720.175 99.1718 720.375 116.288 720.352C131.055 720.332 136.916 719.854 146.037 717.93C187.88 709.103 244.108 682.156 285.042 651.316C294.312 644.332 314.79 624.559 314.79 622.592C314.79 620.668 313.732 621.156 301.809 628.589ZM296.4 675.047C275.246 693.485 243.579 711.404 211.483 723.098C204.516 725.636 200.665 727.601 200.665 728.62C200.665 733.781 223.789 735.851 238.849 732.039C269.061 724.392 289.12 707.39 302.433 678.145C308.212 665.451 307.707 665.192 296.4 675.047Z" fill="#1ABBB8"/>
</svg>
